<svg id="logo-ox" xmlns="http://www.w3.org/2000/svg" width="135" height="40" viewBox="0 0 135 40">
  <path id="パス_3" data-name="パス 3" d="M3.3,6.6A3.329,3.329,0,0,0,6.6,3.3,3.329,3.329,0,0,0,3.3,0,3.329,3.329,0,0,0,0,3.3,3.329,3.329,0,0,0,3.3,6.6" fill="#1f9f3b"/>
  <path id="パス_4" data-name="パス 4" d="M36.5,36.384c-3.2-3.3-6.1-6.3-9.4-9.5v-.4a56.039,56.039,0,0,0,7.8-10.495c1.3-2.9,3.1-6.7,1.3-9.9C34.7,3.4,30.5,3.9,28.1,5c-5.4,2.6-10.8,7.6-11.2,14.093a9.45,9.45,0,0,0,.1,2.4,12.075,12.075,0,0,0,3.1,4.8v.4a55.026,55.026,0,0,1-10,7.6c-1.2.5-2.8,1.5-4,.5a3.362,3.362,0,0,1-.4-2.2,7,7,0,0,0,.3-1.4,31.543,31.543,0,0,1,5.4-9.6c1.2-2.1,4.1-3.4,3.8-6.2-1-2.2-3.2-3.6-4.9-5.5l-.7-.3a2.82,2.82,0,0,0-2.8.3,2.558,2.558,0,0,0-.6,2.4c.8,1.6,2.3,2.5,3.4,3.9v.3a45.072,45.072,0,0,0-5.3,6.9,22.465,22.465,0,0,0-3.1,7.5,26.93,26.93,0,0,0-.4,2.8,12.291,12.291,0,0,0,1,4.3,4.919,4.919,0,0,0,3.6,2c4,.1,7.3-1.5,10.4-3.7a54.9,54.9,0,0,0,7.6-6.1h.4l8.8,8.8a2.915,2.915,0,0,0,3.3.8,3.178,3.178,0,0,0,1.1-1.2,2.9,2.9,0,0,0-.5-2.2m-13-13.493c-1.4-1-1.8-2.7-1.7-4.5.1-.5.3-.9.4-1.4a17.853,17.853,0,0,1,6.7-7.5c.9-.3,1.9-1.2,2.9-.6.6.9-.1,1.9-.3,2.8-1.7,4.1-4.8,7.9-8,11.194" fill="#d61518"/>
  <path id="パス_5" data-name="パス 5" d="M50.7,12.3h-4l-4,6.1V31.3h3.6V18.9Z" transform="translate(0.067 -0.01)" fill="#221714"/>
  <path id="パス_6" data-name="パス 6" d="M60.6,15.7V28.2H58.2V12.4H54.6V28.2H52.1V15.7H48.6V31.3H64.2V15.7Z" transform="translate(0.082 -0.01)" fill="#221714"/>
  <rect id="長方形_59" data-name="長方形 59" width="3.5" height="5.6" transform="translate(113.3 12.294)" fill="#221714"/>
  <path id="パス_7" data-name="パス 7" d="M116.6,27.3V19.9h-3.5v9.3c0,1.7,1,2.1,2.4,2.1h19.3v-3H117.7c-.7.1-1.1,0-1.1-1" transform="translate(0.2 -0.012)" fill="#221714"/>
  <path id="パス_8" data-name="パス 8" d="M122.4,27.6l3-4.5h2.4l3,4.5h4l-3.1-4.5h2.7V20h-6.9l1.3-2h5.6V15h-3.5l1.7-2.5h-4L126.9,15H124V12.5h-3V15h-2.6v3h6.5l-1.4,2h-5.1v3.1h3l-3,4.5Z" transform="translate(0.2 -0.009)" fill="#221714"/>
  <path id="パス_9" data-name="パス 9" d="M88.3,19.7l-5-7.3h-4l2.2,3.2H71.1l2.2-3.2H69.2l-3,4.5c-.7,1,.1,1.9,1.1,1.9H83.7l.7,1C84.3,19.7,88.3,19.7,88.3,19.7Z" transform="translate(0.117 -0.007)" fill="#221714"/>
  <path id="パス_10" data-name="パス 10" d="M86.2,24.4C84,20,78.1,18.4,72.8,21A11.459,11.459,0,0,0,67,27.3a8.52,8.52,0,0,0,.3,6.3,7.886,7.886,0,0,0,4.8,4.1,11.286,11.286,0,0,0,8.6-.7,11.148,11.148,0,0,0,5.8-6.3,8.548,8.548,0,0,0-.3-6.3m-7,9.6c-3.5,1.7-7.5.9-8.8-1.9a4.364,4.364,0,0,1-.1-3.7A7.96,7.96,0,0,1,74.4,24a7.506,7.506,0,0,1,6-.5,4.553,4.553,0,0,1,2.8,2.4,4.364,4.364,0,0,1,.1,3.7A7.382,7.382,0,0,1,79.2,34" transform="translate(0.116 -0.018)" fill="#221714"/>
  <path id="パス_11" data-name="パス 11" d="M98.5,22.4l-5.9,8.9H88.5l5.2-7.9H88.8l3.8-5.8h-2v-3H93V12.3h3.6v2.3h3.1v3H96.8l-1.9,2.9h2.2c1.4,0,2,1,1.4,1.9" transform="translate(0.143 -0.01)" fill="#221714"/>
  <path id="パス_12" data-name="パス 12" d="M111.5,31.3l-4.6-6.9,3.5-5.3h-4.1l-1.5,2.3-1.5-2.3H99.2l3.6,5.3-4.7,6.9h4.1l2.6-3.9,2.6,3.9Z" transform="translate(0.162 -0.012)" fill="#221714"/>
  <path id="パス_13" data-name="パス 13" d="M101.4,17.6h9.4v-3h-6.1l1.6-2.3h-3.7l-2.3,3.2c-.8,1-.4,2.1,1.1,2.1" transform="translate(0.161 -0.006)" fill="#221714"/>
</svg>
