<svg xmlns="http://www.w3.org/2000/svg" width="90" height="90" viewBox="0 0 90 90">
  <g id="グループ_1999" data-name="グループ 1999" transform="translate(-300)">
    <g id="グループ_1998" data-name="グループ 1998">
      <rect id="長方形_1113" data-name="長方形 1113" width="90" height="90" transform="translate(300)" fill="none"/>
    </g>
    <g id="グループ_1213" data-name="グループ 1213">
      <rect id="長方形_419" data-name="長方形 419" width="40" height="2" transform="translate(325 35)" fill="#05f"/>
      <rect id="長方形_420" data-name="長方形 420" width="40" height="2" transform="translate(325 25)" fill="#05f"/>
      <rect id="長方形_421" data-name="長方形 421" width="40" height="2" transform="translate(325 45)" fill="#05f"/>
      <path id="パス_1437" data-name="パス 1437" d="M2.789-8.531,5.25-1.992,7.705-8.531H9.621V0H8.145V-2.812l.146-3.762L5.771,0H4.711L2.2-6.568l.146,3.756V0H.867V-8.531Zm14.77,4.723h-3.5v2.625h4.1V0H12.573V-8.531H18.11v1.2H14.055V-4.98h3.5ZM27.326,0H25.843l-3.8-6.053V0H20.558V-8.531h1.482l3.814,6.076V-8.531h1.471Zm9.192-8.531v5.707a3.089,3.089,0,0,1-.249,1.283,2.59,2.59,0,0,1-.683.92,2.9,2.9,0,0,1-1.014.554A4.074,4.074,0,0,1,33.33.117a4.183,4.183,0,0,1-1.269-.185,2.837,2.837,0,0,1-1.011-.554,2.532,2.532,0,0,1-.668-.92,3.187,3.187,0,0,1-.24-1.283V-8.531H31.62v5.707a2.314,2.314,0,0,0,.12.788,1.432,1.432,0,0,0,.343.548,1.361,1.361,0,0,0,.539.319,2.293,2.293,0,0,0,.709.1,2.321,2.321,0,0,0,.712-.1,1.335,1.335,0,0,0,.539-.319,1.451,1.451,0,0,0,.34-.548,2.314,2.314,0,0,0,.12-.788V-8.531Z" transform="translate(325 63)" fill="#eb0000"/>
      <rect id="長方形_1043" data-name="長方形 1043" width="20" height="2" transform="translate(345 45)" fill="#eb0000"/>
    </g>
  </g>
</svg>
