<svg xmlns="http://www.w3.org/2000/svg" xmlns:xlink="http://www.w3.org/1999/xlink" width="90" height="90" viewBox="0 0 90 90">
  <defs>
    <clipPath id="clip-path">
      <rect id="長方形_1114" data-name="長方形 1114" width="5" height="5" transform="translate(360 42)" fill="#fff"/>
    </clipPath>
  </defs>
  <g id="グループ_1998" data-name="グループ 1998" transform="translate(-300)">
    <rect id="長方形_1113" data-name="長方形 1113" width="90" height="90" transform="translate(300)" fill="#05f"/>
    <g id="グループ_1369" data-name="グループ 1369">
      <path id="パス_1467" data-name="パス 1467" d="M7.377-2.777A3.693,3.693,0,0,1,7.084-1.62a2.762,2.762,0,0,1-.65.917,2.935,2.935,0,0,1-1.017.6A4.072,4.072,0,0,1,4.031.117,3.444,3.444,0,0,1,2.61-.167,3.039,3.039,0,0,1,1.526-.976,3.654,3.654,0,0,1,.838-2.244,5.421,5.421,0,0,1,.6-3.914v-.691A5.309,5.309,0,0,1,.844-6.272a3.675,3.675,0,0,1,.7-1.274,3.112,3.112,0,0,1,1.1-.814A3.54,3.54,0,0,1,4.1-8.648a3.824,3.824,0,0,1,1.348.22,2.877,2.877,0,0,1,.993.609,2.8,2.8,0,0,1,.639.929,3.98,3.98,0,0,1,.3,1.178H5.9a3.319,3.319,0,0,0-.161-.727,1.547,1.547,0,0,0-.325-.548,1.345,1.345,0,0,0-.533-.343A2.289,2.289,0,0,0,4.1-7.447a1.936,1.936,0,0,0-.882.19,1.686,1.686,0,0,0-.63.551,2.582,2.582,0,0,0-.378.888,5.191,5.191,0,0,0-.126,1.2v.7A5.57,5.57,0,0,0,2.2-2.754a2.736,2.736,0,0,0,.346.894,1.657,1.657,0,0,0,.6.577,1.8,1.8,0,0,0,.885.205,2.568,2.568,0,0,0,.812-.111,1.384,1.384,0,0,0,.548-.328,1.49,1.49,0,0,0,.337-.533A3.2,3.2,0,0,0,5.9-2.777Zm3.767,1.594h3.873V0H9.661V-8.531h1.482Zm12.4-2.859A5.537,5.537,0,0,1,23.292-2.3a3.8,3.8,0,0,1-.718,1.307,3.114,3.114,0,0,1-1.113.823A3.531,3.531,0,0,1,20.02.117,3.516,3.516,0,0,1,18.584-.17a3.2,3.2,0,0,1-1.122-.823A3.79,3.79,0,0,1,16.73-2.3a5.422,5.422,0,0,1-.261-1.743v-.434a5.449,5.449,0,0,1,.261-1.746,3.873,3.873,0,0,1,.727-1.312,3.126,3.126,0,0,1,1.116-.826,3.516,3.516,0,0,1,1.436-.287,3.551,3.551,0,0,1,1.444.287,3.12,3.12,0,0,1,1.119.826,3.8,3.8,0,0,1,.721,1.313,5.565,5.565,0,0,1,.255,1.746Zm-1.482-.445a5.206,5.206,0,0,0-.138-1.263,2.693,2.693,0,0,0-.4-.917,1.739,1.739,0,0,0-.647-.56,1.932,1.932,0,0,0-.87-.19,1.886,1.886,0,0,0-.855.19,1.77,1.77,0,0,0-.647.56,2.738,2.738,0,0,0-.41.917,5,5,0,0,0-.144,1.263v.445a5.038,5.038,0,0,0,.144,1.266,2.734,2.734,0,0,0,.413.923,1.777,1.777,0,0,0,.653.563,1.9,1.9,0,0,0,.858.19,1.743,1.743,0,0,0,1.515-.75,3.781,3.781,0,0,0,.53-2.191ZM30.442-2.2a1.3,1.3,0,0,0-.076-.46.911.911,0,0,0-.278-.372,2.312,2.312,0,0,0-.557-.325,8.56,8.56,0,0,0-.911-.325A8.778,8.778,0,0,1,27.5-4.1a3.886,3.886,0,0,1-.888-.545,2.333,2.333,0,0,1-.583-.715,1.972,1.972,0,0,1-.211-.926,2.07,2.07,0,0,1,.22-.949,2.25,2.25,0,0,1,.618-.75,2.944,2.944,0,0,1,.955-.492,4.072,4.072,0,0,1,1.23-.176,3.784,3.784,0,0,1,1.295.208,2.9,2.9,0,0,1,.97.565,2.465,2.465,0,0,1,.606.829,2.433,2.433,0,0,1,.211,1H30.442a1.631,1.631,0,0,0-.1-.571,1.186,1.186,0,0,0-.3-.451,1.362,1.362,0,0,0-.5-.3,2.208,2.208,0,0,0-.721-.105,2.334,2.334,0,0,0-.68.088,1.361,1.361,0,0,0-.478.246.971.971,0,0,0-.281.375,1.2,1.2,0,0,0-.091.469.94.94,0,0,0,.448.791,4.777,4.777,0,0,0,1.368.586,7.928,7.928,0,0,1,1.248.469,3.579,3.579,0,0,1,.876.583,2.107,2.107,0,0,1,.519.732,2.361,2.361,0,0,1,.17.917,2.151,2.151,0,0,1-.214.97,2.071,2.071,0,0,1-.609.732,2.86,2.86,0,0,1-.958.463A4.548,4.548,0,0,1,28.89.117,4.487,4.487,0,0,1,27.677-.05a3.43,3.43,0,0,1-1.072-.5,2.626,2.626,0,0,1-.765-.841,2.332,2.332,0,0,1-.29-1.184h1.482a1.551,1.551,0,0,0,.144.694,1.3,1.3,0,0,0,.393.475,1.648,1.648,0,0,0,.589.27,3.013,3.013,0,0,0,.732.085,1.828,1.828,0,0,0,1.163-.313A1.011,1.011,0,0,0,30.442-2.2Zm8.73-1.611h-3.5v2.625h4.1V0H34.186V-8.531h5.537v1.2H35.668V-4.98h3.5Z" transform="translate(325 63)" fill="#eb0000"/>
      <path id="パス_258" data-name="パス 258" d="M0,8,22,44V40L0,4Z" transform="translate(369 25) rotate(90)" fill="#fff"/>
      <path id="パス_259" data-name="パス 259" d="M0,0,22-36v4L0,4Z" transform="translate(329 25) rotate(90)" fill="#fff"/>
      <g id="マスクグループ_24" data-name="マスクグループ 24" clip-path="url(#clip-path)">
        <path id="パス_260" data-name="パス 260" d="M0,0,22-36v4L0,4Z" transform="translate(329 25) rotate(90)" fill="#eb0000"/>
      </g>
    </g>
  </g>
</svg>
